HIERARCHY
ROOT Hips
{
	OFFSET 0.000000 88.474243 0.000000
	CHANNELS 6 Xposition Yposition Zposition Zrotation Yrotation Xrotation 
	JOINT Hips_Spine
	{
		OFFSET 0.000000 0.000000 0.000000
		CHANNELS 3 Zrotation Yrotation Xrotation
		JOINT Spine
		{
			OFFSET 0.005100 8.711998 -0.691000
			CHANNELS 3 Zrotation Yrotation Xrotation
			JOINT Spine1
			{
				OFFSET -0.009200 8.660301 -1.275000
				CHANNELS 3 Zrotation Yrotation Xrotation
				JOINT Spine2
				{
					OFFSET 0.006300 9.852501 -1.857000
					CHANNELS 3 Zrotation Yrotation Xrotation
					JOINT Spine2_Neck
					{
						OFFSET 0.000000 0.000000 0.000000
						CHANNELS 3 Zrotation Yrotation Xrotation
						JOINT Neck
						{
							OFFSET 0.016300 11.420799 -0.263300
							CHANNELS 3 Zrotation Yrotation Xrotation
							End Site #name: Head
							{
								OFFSET -0.019200 9.262405 2.362500
							}
						}
					}
					JOINT Spine2_LeftShoulder
					{
						OFFSET 0.000000 0.000000 0.000000
						CHANNELS 3 Zrotation Yrotation Xrotation
						JOINT LeftShoulder
						{
							OFFSET 5.616900 6.732201 -0.345700
							CHANNELS 3 Zrotation Yrotation Xrotation
							JOINT LeftArm
							{
								OFFSET 10.664888 -0.183372 -2.440700
								CHANNELS 3 Zrotation Yrotation Xrotation
								JOINT LeftForeArm
								{
									OFFSET 27.459126 0.000000 0.000000
									CHANNELS 3 Zrotation Yrotation Xrotation
									End Site #name: LeftHand
									{
										OFFSET 21.306858 0.000000 0.000000
									}
								}
							}
						}
					}
					JOINT Spine2_RightShoulder
					{
						OFFSET 0.000000 0.000000 0.000000
						CHANNELS 3 Zrotation Yrotation Xrotation
						JOINT RightShoulder
						{
							OFFSET -5.580300 6.737503 -0.344400
							CHANNELS 3 Zrotation Yrotation Xrotation
							JOINT RightArm
							{
								OFFSET -10.679335 -0.188484 -2.383900
								CHANNELS 3 Zrotation Yrotation Xrotation
								JOINT RightForeArm
								{
									OFFSET -27.503529 0.000000 0.000000
									CHANNELS 3 Zrotation Yrotation Xrotation
									End Site #name: RightHand
									{
										OFFSET -21.306808 0.000000 0.000000
									}
								}
							}
						}
					}
				}
			}
		}
	}
	JOINT Hips_LeftUpLeg
	{
		OFFSET 0.000000 0.000000 0.000000
		CHANNELS 3 Zrotation Yrotation Xrotation
		JOINT LeftUpLeg
		{
			OFFSET 6.857700 -6.739601 0.312100
			CHANNELS 3 Zrotation Yrotation Xrotation
			JOINT LeftLeg
			{
				OFFSET -0.367590 -34.731552 -4.572400
				CHANNELS 3 Zrotation Yrotation Xrotation
				End Site #name: LeftFoot
				{
					OFFSET 0.367590 -34.656704 -6.067400
				}
			}
		}
	}
	JOINT Hips_RightUpLeg
	{
		OFFSET 0.000000 0.000000 0.000000
		CHANNELS 3 Zrotation Yrotation Xrotation
		JOINT RightUpLeg
		{
			OFFSET -6.876100 -6.733299 0.301000
			CHANNELS 3 Zrotation Yrotation Xrotation
			JOINT RightLeg
			{
				OFFSET 0.347353 -34.795158 -4.515900
				CHANNELS 3 Zrotation Yrotation Xrotation
				End Site #name: RightFoot
				{
					OFFSET -0.347353 -34.589367 -6.070300
				}
			}
		}
	}
}
MOTION
Frames: 16
Frame Time: 0.041667
-1.043835 1.886230 0.367939 8.776661 47.791350 -16.950704 0.000000 -0.000000 0.000000 -8.053062 5.180151 -26.241826 5.864402 -8.723257 -5.834852 0.000000 0.000000 0.000000 3.876512 -0.696068 0.680532 -13.365926 -1.820328 -6.868174 14.219720 2.686040 -7.308444 -54.931151 -31.310419 7.382505 -156.833858 46.502807 -115.776368 -179.552922 -31.266808 177.077440 5.593902 3.173741 -3.949692 9.471116 5.257849 6.239786 165.030026 69.258622 38.547078 0.722480 28.478011 3.988307 0.000000 -0.000000 0.000000 40.588601 5.670765 36.602920 58.685973 27.299205 108.182972 -0.000000 -0.000000 0.000000 81.650599 8.563374 -4.468744 -14.605223 7.154310 -81.162400 
-2.598178 4.394743 0.373630 14.535228 42.781805 -16.848547 0.000000 -0.000000 0.000000 -1.617403 8.876586 -50.956736 3.824431 -6.294460 7.041856 0.000000 0.000000 0.000000 -2.074993 1.859213 2.388468 -26.195910 5.366722 -9.617389 16.320128 0.744619 -8.443614 -81.308778 -34.214906 16.103720 -155.713316 44.768226 -119.815778 175.613048 -30.159256 178.663558 6.720197 1.789918 -12.245326 19.651910 17.472075 -0.731658 -92.221730 88.883683 138.363492 -4.255942 74.790899 -2.507425 0.000000 -0.000000 0.000000 38.088007 -9.868351 40.081721 59.372276 22.499769 126.669332 -0.000000 -0.000000 0.000000 72.288633 -0.427573 -26.437189 -18.704313 3.394976 -80.935483 
-4.522865 6.817266 0.495366 14.511746 48.976120 -17.243886 0.000000 -0.000000 0.000000 2.430934 11.000683 -56.597997 2.952151 -5.084503 11.672399 0.000000 0.000000 0.000000 -3.731576 3.969388 11.530442 -32.661958 12.298145 -5.315965 15.851172 0.294633 -9.767978 -92.228084 -31.093914 16.162247 -150.430153 45.453243 -116.572569 175.860472 -24.991924 179.167661 7.039083 2.060082 -10.625976 32.417373 4.016586 -9.566963 24.743404 71.099523 -116.493771 -173.358681 54.573905 -175.226412 0.000000 -0.000000 0.000000 31.440397 -14.176619 39.062859 72.740869 26.029899 124.632434 -0.000000 -0.000000 0.000000 67.284513 6.207109 -33.795638 -20.548686 7.010048 -75.832816 
-6.666716 9.436089 0.739844 14.116086 55.956871 -17.103863 0.000000 -0.000000 0.000000 4.185894 13.482976 -57.790741 1.801976 -5.449606 11.019916 0.000000 0.000000 0.000000 -4.834015 4.171322 13.002273 -38.491521 15.664763 -1.484714 14.230769 -1.618820 -9.736306 -97.728128 -28.477116 15.184112 -148.852258 48.371396 -117.936069 176.599537 -23.227472 178.855676 6.217896 0.843388 -11.214002 35.555364 0.792439 -11.819188 35.923172 58.719917 -119.123644 -174.652238 34.503290 -176.701055 -0.000000 -0.000000 0.000000 28.874917 -17.949868 39.823885 74.850927 28.833138 122.124784 -0.000000 -0.000000 0.000000 66.723450 6.488936 -36.318023 -20.600589 6.776583 -73.070168 
-8.964355 12.171128 1.166764 13.118102 63.112586 -17.419152 0.000000 -0.000000 0.000000 5.970911 15.040605 -55.700149 0.880804 -6.222629 9.455453 0.000000 0.000000 0.000000 -5.321657 3.158282 11.986627 -45.133541 16.092086 -1.889972 12.917152 -3.003642 -9.275635 -99.321888 -26.362765 14.783155 -149.224986 50.178204 -120.161999 177.041926 -24.786544 178.614712 4.223077 -0.956274 -10.999387 38.334219 -1.312109 -13.949454 39.012924 54.316817 -125.406687 -176.391202 21.585725 -177.714526 -0.000000 -0.000000 0.000000 29.584519 -19.219959 38.889044 74.575767 29.493843 121.382273 -0.000000 -0.000000 0.000000 66.630254 5.993626 -37.906329 -21.359534 7.871986 -70.764998 
-11.369204 15.013696 1.712059 12.232615 68.278207 -17.774256 0.000000 -0.000000 0.000000 6.902216 15.108444 -52.899314 0.153603 -7.456453 7.777594 0.000000 0.000000 0.000000 -5.747325 2.172026 10.839793 -50.849609 17.284315 -2.625723 11.676210 -3.730235 -8.763362 -99.547145 -25.415551 14.114127 -151.596590 51.136228 -122.605758 177.074699 -26.632546 178.503328 2.768285 -2.427112 -10.414926 42.224690 -2.939233 -15.645698 40.755054 50.898993 -129.520987 -177.472216 20.835289 -177.659570 -0.000000 -0.000000 0.000000 31.482667 -20.406603 35.654475 73.898250 30.183653 120.303733 -0.000000 -0.000000 0.000000 67.483244 5.592806 -37.865500 -22.222978 8.751693 -68.696591 
-13.828964 17.964197 2.346781 11.226316 72.113024 -18.370358 0.000000 -0.000000 0.000000 7.385093 14.717086 -50.364179 -0.308703 -9.088925 6.105553 0.000000 0.000000 0.000000 -5.869201 1.106738 9.937151 -54.020728 19.443373 -2.302261 9.826344 -4.210799 -8.139243 -99.332364 -24.749633 13.171320 -154.861587 51.458927 -124.743774 176.982754 -27.322439 178.464461 1.332223 -3.651456 -9.461494 46.295027 -5.131333 -17.416071 42.689361 47.587136 -131.321341 -177.813748 23.699945 -177.658338 -0.000000 -0.000000 0.000000 34.530103 -21.379116 32.333395 72.151923 30.720339 118.676330 -0.000000 -0.000000 0.000000 68.121205 5.266843 -37.527859 -22.838210 9.765560 -67.958435 
-16.297657 20.900681 3.056600 10.419202 75.304107 -18.837895 0.000000 -0.000000 0.000000 7.520518 14.196789 -48.217999 -0.508132 -11.154137 4.090388 0.000000 0.000000 0.000000 -5.981349 0.029456 8.979077 -56.199506 20.977737 -2.073370 8.258874 -4.530721 -7.615791 -99.130781 -24.360052 12.424956 -157.527401 51.717271 -126.356109 176.887578 -28.058809 178.406371 0.046535 -4.453725 -8.539562 49.984150 -6.013980 -18.406343 43.668055 45.840108 -132.226577 -178.135743 26.061041 -177.618200 -0.000000 -0.000000 0.000000 37.200852 -22.062287 29.575486 69.403749 30.967250 116.632854 -0.000000 -0.000000 0.000000 69.657466 5.671643 -35.957243 -23.197387 10.785185 -66.739267 
-18.727728 23.777100 3.783872 9.626226 78.381899 -19.118327 0.000000 -0.000000 0.000000 7.706235 14.003475 -46.033139 -0.589479 -13.127805 2.516554 0.000000 0.000000 0.000000 -6.119300 -0.800308 8.067798 -58.650476 21.644880 -2.624728 6.734954 -4.651898 -7.303815 -98.800976 -23.645376 11.285201 -158.924914 51.904504 -127.232723 176.841599 -29.244923 178.328670 -1.148257 -5.371040 -7.684202 51.925054 -5.092873 -17.837674 44.268148 45.294545 -132.455793 -178.525073 27.481130 -177.577649 -0.000000 -0.000000 0.000000 39.355831 -22.194080 26.813110 66.049809 30.575821 114.618420 -0.000000 -0.000000 0.000000 71.039756 6.910917 -34.886533 -23.262426 11.733028 -64.493471 
-21.112490 26.566818 4.525283 8.845811 81.227717 -19.287368 0.000000 -0.000000 0.000000 7.807815 13.851001 -44.162180 -0.620184 -14.631397 1.214320 0.000000 0.000000 0.000000 -6.333554 -1.622606 7.331525 -61.327552 21.310987 -4.321559 5.297266 -4.680603 -6.908282 -98.411651 -22.886715 10.114244 -159.899332 51.927187 -127.914122 176.836060 -30.598114 178.220162 -2.283245 -6.118639 -6.989824 52.884419 -4.083695 -17.165327 44.474560 45.427891 -132.569806 -178.799577 28.092028 -177.589544 -0.000000 -0.000000 0.000000 41.050716 -21.778681 24.130368 62.701997 29.425114 113.072630 -0.000000 -0.000000 0.000000 71.788903 8.934822 -34.772616 -23.121168 12.823249 -61.826531 
-23.435766 29.284582 5.278337 7.922562 83.643522 -19.624091 0.000000 -0.000000 0.000000 7.871695 13.565196 -42.390527 -0.678628 -15.854686 0.050191 0.000000 0.000000 0.000000 -6.532640 -2.398227 6.566724 -63.676286 20.368028 -6.381831 3.942999 -4.709908 -6.464639 -98.055189 -22.091521 8.991677 -160.788513 51.768151 -128.571779 176.872189 -31.043229 178.076154 -3.374879 -6.652663 -6.431313 53.183088 -2.954103 -16.358734 44.397966 46.056202 -132.632354 -178.981637 28.761813 -177.717211 -0.000000 -0.000000 0.000000 42.458920 -21.296128 21.612310 59.577533 27.968130 111.953745 -0.000000 -0.000000 0.000000 72.564641 11.359773 -34.383033 -22.935276 14.083356 -59.162000 
-25.677143 31.944010 6.031233 7.063318 85.444052 -20.031994 0.000000 -0.000000 0.000000 8.243098 13.466222 -40.594269 -0.718992 -17.131666 -1.074808 0.000000 0.000000 0.000000 -6.819435 -3.165654 5.912360 -65.531766 19.250928 -8.273981 2.591756 -4.811535 -5.867420 -97.810887 -21.257332 7.929463 -161.642423 51.494570 -129.222589 176.929005 -31.098940 177.918191 -4.471255 -7.203082 -5.725246 53.874107 -2.111193 -15.731390 44.059175 46.840800 -132.833042 -178.879047 28.500021 -178.056394 -0.000000 -0.000000 0.000000 43.795080 -21.127520 19.412872 56.738299 26.573436 111.141360 -0.000000 -0.000000 0.000000 73.311531 13.699566 -33.805628 -22.671229 15.430042 -56.588851 
-27.800459 34.564583 6.780863 6.681952 86.490812 -20.172101 0.000000 -0.000000 0.000000 8.406361 13.187867 -38.807157 -0.691137 -18.391815 -2.329454 0.000000 0.000000 0.000000 -7.042681 -4.132221 5.089200 -66.975866 18.051443 -9.887753 1.175260 -4.958061 -5.191983 -97.633147 -20.440738 6.950212 -162.468934 51.172796 -129.886546 176.976294 -31.187571 177.750342 -5.615055 -7.848835 -4.798633 55.077237 -1.572187 -15.294155 43.359858 47.720208 -133.242823 -178.707147 27.671595 -178.460221 -0.000000 -0.000000 0.000000 45.052453 -21.276521 17.766840 54.362820 25.439613 110.543237 -0.000000 -0.000000 0.000000 74.325417 15.908101 -32.747961 -22.419394 16.814726 -54.210011 
-29.790882 37.169754 7.513209 7.988738 86.692879 -18.840671 0.000000 -0.000000 0.000000 8.668549 12.950116 -37.247794 -0.662360 -19.594391 -3.310844 0.000000 0.000000 0.000000 -7.149422 -5.151837 4.099172 -67.919019 17.023274 -11.009293 -0.268733 -5.059941 -4.364471 -97.512615 -19.664083 6.079336 -163.230130 50.852118 -130.464006 177.027073 -31.242590 177.580942 -6.728252 -8.509435 -3.754147 56.664192 -1.236459 -14.886595 42.672926 48.515692 -133.614444 -178.492474 26.735619 -178.887714 -0.000000 -0.000000 0.000000 46.040161 -21.453310 16.079132 52.400864 24.630201 110.074248 -0.000000 -0.000000 0.000000 75.356108 18.030148 -31.419643 -22.143671 18.114526 -52.282356 
-31.635353 39.777424 8.216644 10.313320 86.145841 -16.679971 0.000000 -0.000000 0.000000 8.842703 12.731076 -35.816805 -0.660201 -20.751704 -4.068539 0.000000 0.000000 0.000000 -7.154435 -6.154836 3.029181 -68.802450 15.414148 -11.743954 -1.747302 -4.965594 -3.617008 -97.387423 -18.948043 5.324316 -163.852542 50.570894 -130.917969 177.090765 -31.316444 177.406382 -7.827008 -9.160740 -2.620660 58.294325 -1.001534 -14.450111 42.127042 49.031811 -134.017062 -178.336950 25.746248 -179.297229 -0.000000 -0.000000 0.000000 46.810538 -21.460358 14.543255 50.863286 24.187082 109.472958 -0.000000 -0.000000 0.000000 76.250268 19.983920 -29.684476 -21.868923 19.347194 -50.706613 
-33.319328 42.390858 8.885843 12.438255 85.146909 -14.786765 0.000000 -0.000000 0.000000 8.719440 12.534662 -34.610484 -0.666062 -21.911211 -4.784997 0.000000 0.000000 0.000000 -7.141195 -7.168267 1.963549 -69.664146 13.685118 -12.340237 -3.220146 -4.842416 -2.918828 -97.243898 -18.292595 4.656681 -164.347885 50.333834 -131.263637 177.178167 -30.901513 177.234334 -8.980152 -9.843193 -1.350699 59.750560 -0.858115 -14.008586 41.651589 49.274288 -134.471012 -178.296064 24.787244 -179.614265 -0.000000 -0.000000 0.000000 47.374425 -21.356175 13.454707 49.675175 23.764079 109.248796 -0.000000 -0.000000 0.000000 77.446959 21.642383 -27.334155 -21.636543 20.375515 -49.937560 
